PathFileType	4	(X/Y/Z)	C:/Users/dbak576/Desktop/Duncan Bakke Modelling Files/H20s1/Static_H20s1.trc	
DataRate	CameraRate	NumFrames	NumMarkers	Units	OrigDataRate	OrigDataStartFrame	OrigNumFrames	
200.00	200.00	4	61	mm	200.00	465	672	
Frame#	Time	LFHD			RFHD			LBHD			RBHD			C7			T10			CLAV			STRN			RBack			LASI			RASI			LPSI			RPSI			RACR1			RUA1			RElbow			RElbowM			RFA1			RWRR			RWRU			RCAR			LACR1			LUA1			LElbow			LElbowM			LFA1			LWRR			LWRU			LCAR			RTH1			RTH3			RTH2			RTH4			RLFC			RMFC			RTB1			RTB3			RTB2			RTB4			RLMAL			RMMAL			RCAL			RMT1			RMT5			RToe			LTH1			LTH3			LTH2			LTH4			LLFC			LMFC			LTB1			LTB3			LTB2			LTB4			LLMAL			LMMAL			LCAL			LMT1			LMT5			LToe			
		X1	Y1	Z1	X2	Y2	Z2	X3	Y3	Z3	X4	Y4	Z4	X5	Y5	Z5	X6	Y6	Z6	X7	Y7	Z7	X8	Y8	Z8	X9	Y9	Z9	X10	Y10	Z10	X11	Y11	Z11	X12	Y12	Z12	X13	Y13	Z13	X14	Y14	Z14	X15	Y15	Z15	X16	Y16	Z16	X17	Y17	Z17	X18	Y18	Z18	X19	Y19	Z19	X20	Y20	Z20	X21	Y21	Z21	X22	Y22	Z22	X23	Y23	Z23	X24	Y24	Z24	X25	Y25	Z25	X26	Y26	Z26	X27	Y27	Z27	X28	Y28	Z28	X29	Y29	Z29	X30	Y30	Z30	X31	Y31	Z31	X32	Y32	Z32	X33	Y33	Z33	X34	Y34	Z34	X35	Y35	Z35	X36	Y36	Z36	X37	Y37	Z37	X38	Y38	Z38	X39	Y39	Z39	X40	Y40	Z40	X41	Y41	Z41	X42	Y42	Z42	X43	Y43	Z43	X44	Y44	Z44	X45	Y45	Z45	X46	Y46	Z46	X47	Y47	Z47	X48	Y48	Z48	X49	Y49	Z49	X50	Y50	Z50	X51	Y51	Z51	X52	Y52	Z52	X53	Y53	Z53	X54	Y54	Z54	X55	Y55	Z55	X56	Y56	Z56	X57	Y57	Z57	X58	Y58	Z58	X59	Y59	Z59	X60	Y60	Z60	X61	Y61	Z61	

85	0.420	-26.30532	-331.88919	1649.82275	54.62178	-336.01041	1655.38245	-60.56500	-507.71384	1601.10132	78.00104	-515.70154	1600.48633	8.07910	-523.35815	1455.81262	-9.74922	-554.14386	1135.42529	0.78253	-371.53564	1400.86267	-4.51977	-334.47592	1236.99426	89.79727	-585.76465	1355.27356	-158.75981	-355.18430	965.95648	146.21147	-364.20105	959.71320	-69.57777	-532.96106	977.81714	34.00273	-542.97705	977.18005	119.56186	-488.67303	1459.11328	290.09671	-475.90030	1415.49182	411.99536	-444.46805	1393.49707	395.34326	-378.00784	1336.75073	539.68018	-395.96597	1441.24939	647.02222	-302.62042	1497.56775	657.72498	-323.91858	1424.11816	713.31812	-310.54443	1468.61719	-133.37166	-494.36383	1465.03735	-312.77908	-475.51904	1415.42407	-427.39581	-439.40445	1389.81616	-395.49899	-400.95029	1330.67200	-555.31702	-385.25928	1465.72546	-638.88165	-301.81970	1506.87976	-657.85858	-307.36536	1429.75525	-709.79431	-311.17847	1491.92029	202.81311	-439.02423	764.94666	200.35069	-442.17358	575.39978	185.39687	-370.61996	671.63739	204.97102	-440.23807	668.09094	196.73019	-446.27295	471.87643	65.43199	-462.34375	439.00623	132.49760	-411.81696	368.91684	155.45624	-440.37961	182.16222	215.68567	-445.74582	287.09174	146.22235	-423.80157	278.01770	199.51981	-512.80133	88.57397	116.08253	-476.30490	92.20778	159.68251	-558.95276	35.17731	140.70338	-352.04388	38.60001	227.08086	-389.37540	33.53713	167.36052	-295.38162	25.98007	-210.61528	-406.10852	769.49512	-207.59146	-427.23434	582.99335	-175.10487	-350.47055	664.64496	-214.38141	-417.45288	672.27966	-204.23355	-450.69247	469.08658	-79.15290	-472.20523	435.37466	-160.39044	-419.06247	370.67068	-170.71991	-462.69528	190.11798	-228.50742	-475.28381	292.01086	-165.26903	-442.23398	280.55600	-204.51550	-547.21759	80.04600	-120.18327	-509.40112	85.85578	-160.15683	-593.82294	33.13914	-143.58449	-379.50790	35.95868	-233.14313	-413.20901	32.02002	-160.24947	-332.89609	26.79368 
86	0.425	-26.31463	-331.90036	1649.82959	54.65052	-336.01944	1655.39063	-60.54525	-507.77505	1601.07983	78.03034	-515.73199	1600.47986	8.10208	-523.35608	1455.81567	-9.72680	-554.13770	1135.42236	0.78421	-371.57074	1400.87830	-4.47627	-334.51917	1236.99170	89.76846	-585.83734	1355.25793	-158.75813	-355.20569	965.97003	146.09596	-364.25604	959.66815	-69.58358	-532.95831	977.83765	34.00876	-542.96368	977.17188	119.60712	-488.70416	1459.11584	290.06769	-475.92331	1415.47156	412.02133	-444.47379	1393.48474	395.34692	-378.00378	1336.74097	539.68634	-395.96515	1441.21582	647.02045	-302.61957	1497.55261	657.73126	-323.89514	1424.08936	713.38690	-310.49805	1468.37354	-133.37512	-494.40036	1465.03406	-312.84729	-475.52975	1415.47754	-427.65967	-439.57025	1389.91138	-395.47742	-400.92020	1330.65698	-555.31818	-385.28210	1465.72070	-638.86292	-301.81677	1506.87463	-657.83740	-307.39197	1429.74683	-709.74609	-311.13538	1491.93262	202.81166	-439.02402	764.94574	200.32684	-442.17593	575.39075	185.33507	-370.61276	671.57520	204.94916	-440.20676	668.15918	196.75894	-446.26974	471.88297	65.44097	-462.34576	438.98795	132.46919	-411.82108	368.93796	155.44691	-440.36209	182.13846	215.67226	-445.74945	287.09891	146.20235	-423.77673	278.00839	199.51984	-512.78320	88.57214	116.02251	-476.32025	92.24049	159.71135	-558.93011	35.18560	140.70529	-352.03455	38.60143	227.05708	-389.37439	33.56420	167.36157	-295.36127	26.02136	-210.61923	-406.12384	769.53442	-207.59412	-427.23477	582.99554	-175.08923	-350.41397	664.57568	-214.30624	-417.51468	672.27631	-204.22420	-450.69672	469.10052	-79.16631	-472.24048	435.38141	-160.41185	-419.06552	370.69351	-170.72481	-462.69308	190.12367	-228.51848	-475.27637	292.01053	-165.24991	-442.26776	280.55807	-204.52112	-547.20978	80.03014	-120.15960	-509.38226	85.82515	-160.15869	-593.82483	33.13644	-143.58194	-379.48270	35.92082	-233.11493	-413.17432	32.03570	-160.25252	-332.90771	26.79821 
87	0.430	-26.33024	-331.93628	1649.81897	54.65842	-336.02097	1655.38879	-60.53811	-507.80310	1601.08569	78.03331	-515.75507	1600.49023	8.13244	-523.35968	1455.79871	-9.72968	-554.12793	1135.42676	0.77837	-371.58212	1400.88818	-4.43050	-334.25546	1237.09204	89.79953	-585.84851	1355.24976	-158.74126	-355.24255	965.98047	146.01134	-364.27921	959.63153	-69.57722	-532.95319	977.84528	33.98946	-542.98419	977.16760	119.63297	-488.71124	1459.10339	290.05231	-475.94055	1415.46484	412.01907	-444.46799	1393.47961	395.35880	-378.00919	1336.72205	539.69855	-395.94565	1441.21094	647.03796	-302.61838	1497.54285	657.72241	-323.89041	1424.08020	713.38116	-310.50003	1468.42676	-133.36465	-494.42664	1465.03772	-312.83322	-475.51132	1415.44714	-427.61456	-439.57358	1389.90637	-395.47565	-400.93750	1330.64575	-555.29749	-385.29593	1465.71387	-638.83038	-301.82425	1506.87610	-657.81378	-307.38422	1429.77380	-709.71320	-311.13269	1491.96509	202.81258	-439.02325	764.94788	200.34326	-442.16788	575.38666	185.25716	-370.59552	671.50006	205.00188	-440.19235	668.25598	196.75906	-446.29019	471.88565	65.46581	-462.34824	438.97617	132.47652	-411.81772	368.94955	155.44022	-440.35785	182.14201	215.72931	-445.73907	287.12085	146.18079	-423.80829	278.03275	199.52008	-512.77405	88.57402	115.62901	-476.42157	92.40450	159.73244	-558.91266	35.18885	140.68520	-352.03372	38.59364	227.03589	-389.36212	33.57278	167.36774	-295.37045	26.01421	-210.65416	-406.13889	769.60394	-207.57281	-427.23038	582.99078	-175.07011	-350.39822	664.51910	-214.28418	-417.51556	672.25958	-204.19348	-450.70819	469.07446	-79.15128	-472.28427	435.36523	-160.39525	-419.06683	370.73193	-170.70743	-462.70740	190.10873	-228.52010	-475.28317	292.01947	-165.25209	-442.28299	280.52872	-204.53255	-547.21436	80.03092	-120.16727	-509.37076	85.84322	-160.15697	-593.82574	33.14329	-143.58701	-379.47668	35.93198	-233.16211	-413.21356	32.03516	-160.24799	-332.90756	26.78758 
88	0.435	-26.31684	-331.97189	1649.85889	54.64796	-336.01651	1655.39856	-60.51980	-507.82898	1601.07764	78.04143	-515.75323	1600.49634	8.13279	-523.36536	1455.79224	-9.73126	-554.14587	1135.43262	0.78515	-371.58411	1400.86328	-4.51481	-334.19476	1237.09094	89.83538	-585.82611	1355.23853	-158.74046	-355.25562	965.96857	145.98048	-364.27151	959.59912	-69.59608	-532.98810	977.84802	33.98928	-542.97089	977.16937	119.66181	-488.70712	1459.09534	290.08728	-475.94165	1415.45496	412.02664	-444.47287	1393.48096	395.36395	-378.05829	1336.71472	539.72949	-395.94403	1441.21802	647.05273	-302.61429	1497.48108	657.72363	-323.89893	1424.05627	713.41132	-310.52060	1468.51013	-133.35503	-494.43677	1465.04932	-312.91949	-475.61633	1415.51550	-427.74316	-439.66040	1389.95654	-395.45685	-400.96143	1330.65576	-555.28589	-385.29669	1465.71509	-638.82465	-301.82877	1506.88806	-657.81201	-307.37225	1429.78662	-709.69482	-311.10373	1491.97168	202.81270	-439.02362	764.94739	200.34673	-442.16797	575.38800	185.22821	-370.57889	671.48505	205.05318	-440.21585	668.28772	196.74419	-446.27780	471.88028	65.45164	-462.33310	438.97797	132.47528	-411.82089	368.94266	155.44153	-440.36237	182.14935	215.81931	-445.71860	287.12622	146.16948	-423.83365	278.03558	199.52808	-512.78705	88.58102	115.33913	-476.47824	92.55348	159.72548	-558.91217	35.18743	140.69501	-352.03006	38.59251	227.02260	-389.37106	33.57064	167.36833	-295.38211	25.99102	-210.68010	-406.13348	769.62494	-207.57870	-427.23148	582.98901	-174.85913	-350.58118	664.48407	-214.37813	-417.48480	672.23505	-204.19745	-450.70184	469.07230	-79.13495	-472.32086	435.36493	-160.40733	-419.05774	370.71667	-170.70534	-462.70676	190.09705	-228.52786	-475.32376	292.02579	-165.22073	-442.28381	280.52112	-204.55125	-547.22083	80.04492	-120.18377	-509.36450	85.87020	-160.15399	-593.82861	33.14025	-143.58493	-379.48175	35.93819	-233.11606	-413.16379	32.03957	-160.26628	-332.92239	26.79800 
